<?xml version="1.0" encoding="UTF-8"?>
<svg width="32px" height="32px" viewBox="0 0 32 32" version="1.1" xmlns="http://www.w3.org/2000/svg" xmlns:xlink="http://www.w3.org/1999/xlink">
    <!-- Generator: Sketch 41.1 (35376) - http://www.bohemiancoding.com/sketch -->
    <title>ic_barcode</title>
    <desc>Created with Sketch.</desc>
    <defs></defs>
    <g id="Icons" stroke="none" stroke-width="1" fill="none" fill-rule="evenodd">
        <g id="Desktop-HD" transform="translate(-1009.000000, -699.000000)"></g>
        <g id="ic_barcode">
            <g id="Group" transform="translate(4.000000, 4.000000)">
                <g id="Page-1" stroke-opacity="0.00784313771" stroke="#000000" stroke-width="1.33333335e-11">
                    <polygon id="Stroke-1" points="0 0 23.9999985 0 23.9999985 23.9999985 0 23.9999985"></polygon>
                </g>
                <path d="M11.979899,11 L11.979899,4 L14.979899,4 L14.979899,11 L16,11 L16,4 L17,4 L17,11 L18,11 L18,4 L20,4 L20,11 L22,11 L22,12 L2,12 L2,11 L4,11 L4,4 L5,4 L5,11 L6,11 L6,4 L7.97989899,4 L7.97989899,11 L9,11 L9,4 L10,4 L10,11 L11.979899,11 Z M11.979899,13 L11.979899,20 L14.979899,20 L14.979899,13 L11.979899,13 Z M16,13 L16,20 L17,20 L17,13 L16,13 Z M18,13 L18,20 L20,20 L20,13 L18,13 Z M9,13 L9,20 L10,20 L10,13 L9,13 Z M6,13 L6,20 L7.97989899,20 L7.97989899,13 L6,13 Z M4,13 L4,20 L5,20 L5,13 L4,13 Z" id="Combined-Shape" fill="#000000"></path>
            </g>
        </g>
    </g>
</svg>