<?xml version="1.0" encoding="UTF-8"?>
<svg width="32px" height="32px" viewBox="0 0 32 32" version="1.1" xmlns="http://www.w3.org/2000/svg" xmlns:xlink="http://www.w3.org/1999/xlink">
    <!-- Generator: Sketch 41.1 (35376) - http://www.bohemiancoding.com/sketch -->
    <title>ic_direct_purchase</title>
    <desc>Created with Sketch.</desc>
    <defs></defs>
    <g id="Icons" stroke="none" stroke-width="1" fill="none" fill-rule="evenodd">
        <g id="Desktop-HD-Copy" transform="translate(-81.000000, -475.000000)"></g>
        <g id="ic_direct_purchase">
            <g id="Page-1" transform="translate(6.000000, 6.000000)">
                <polygon id="Stroke-1" stroke-opacity="0.00784313771" stroke="#000000" stroke-width="1.33333335e-11" points="1 2 19 2 19 18 1 18"></polygon>
                <path d="M9.99999928,-1.20000095e-07 C4.47999962,-1.20000095e-07 -1.2000001e-07,4.47999962 -1.2000001e-07,9.99999928 C-1.2000001e-07,15.5199993 4.47999962,19.9999987 9.99999928,19.9999987 C15.5199993,19.9999987 19.9999987,15.5199993 19.9999987,9.99999928 C19.9999987,4.47999915 15.5199993,-1.20000095e-07 9.99999928,-1.20000095e-07 Z M9.99999928,17.9999988 C5.58999969,17.9999988 1.99999976,14.4099988 1.99999976,9.99999928 C1.99999976,5.58999969 5.58999969,1.99999976 9.99999928,1.99999976 C14.4099988,1.99999976 17.9999988,5.58999969 17.9999988,9.99999928 C17.9999988,14.4099988 14.4099988,17.9999988 9.99999928,17.9999988 Z M10.5538466,9.21250033 C9.03905381,8.76625013 8.03550355,8.5912503 8.03550355,7.56750023 C8.03550355,6.8412503 8.71716017,6.15000033 10.0236687,6.15000033 C11.5289943,6.15000033 12.0118347,6.92000043 12.0118347,7.84750038 L13.8106511,7.84750038 C13.8106511,6.28125041 12.7029586,5.14375045 10.9704143,4.83750033 L10.9704143,3 L9.07692315,3 L9.07692315,4.8462499 C7.58106519,5.12624984 6.2366864,6.04500001 6.2366864,7.5762496 C6.2366864,9.5449996 7.92189328,10.0262498 10.0236687,10.65625 C11.8035505,11.1899997 12.1538463,11.5662499 12.1538463,12.4850001 C12.1538463,13.2724997 11.5195267,13.8499996 10.0236687,13.8499996 C8.88757421,13.8499996 7.89349117,13.1149995 7.89349117,12.0475001 L6,12.0475001 C6,13.6925002 7.30650901,14.8474999 9.07692315,15.1624996 L9.07692315,17 L10.9704143,17 L10.9704143,15.1887503 C12.9017752,14.9350003 14,13.8850004 14,12.4762499 C14,10.84 13.1100595,9.96500003 10.5538458,9.21250033 L10.5538466,9.21250033 Z" id="Combined-Shape" fill="#000000"></path>
            </g>
        </g>
    </g>
</svg>